<svg version="1.2" xmlns="http://www.w3.org/2000/svg" viewBox="0 0 1500 1388" width="1500" height="1388">
	<style>
		.s0 { fill: #000000 } 
	</style>
	<g>
		<path class="s0" d="m727.5 36.6c-22.2 1.7-52.3 7.1-72.6 12.9-41.4 12-78.7 32.8-111.4 62.3-42 37.8-73.3 92.6-85 148.8-6.8 32.6-7.9 68.1-3.1 98.5l1.3 8-10.1 5.4c-41 21.9-105.2 47.2-159.8 63-30.5 8.9-81.5 21.1-101.2 24.2-2.7 0.5-5.1 1.3-5.3 1.8-0.1 0.6 31.6 21.2 70.4 46 90.2 57.4 97.5 62.2 111.1 74 34.5 29.7 60.6 71.1 72.8 115.5 4.5 16.2 8 37 6.4 38-0.7 0.4-4.4 1-8.3 1.3-7.8 0.7-10.7 2.2-14.4 7.7-4.1 5.9-2.2 14.8 4 18.9l2.8 1.8-3.6 2.2c-7.4 4.3-8.6 15.3-2.5 21.6 1.8 1.9 4.6 3.7 6.2 4l2.9 0.7-2.9 3.3c-4.1 4.6-4.8 9.4-2.3 15 2 4.6 6.9 8.5 10.5 8.5 1.9 0 1.9 0.1-0.2 2.2-9.3 10-2.4 24.8 11.6 24.8 3.1 0 5.2 0.4 5.2 1.1 0 6.6 10.4 148.4 11.5 157.4 6.3 49.2 21.7 97 45.1 139.8 9.4 17.3 27.3 43.8 40.5 60.2 16.1 20.1 57.2 70.7 64.6 79.6l6.3 7.6 12.5-8.3c51.8-34.3 129.7-56.1 238.5-66.9 8.5-0.8 17.6-1.8 20.1-2.1l4.6-0.5 0.7 23.8c0.3 13.1 0.9 30.7 1.2 39l0.7 15.2 70.3 0.1h70.4v-10.2c-0.1-7.9-3.7-137-4-137.4 0 0-1.3 0.1-2.9 0.4-3.9 0.5-7.1-2.7-7.1-7.1 0-4.3 3.1-7.7 7-7.7h2.9l-0.6-18.3c-0.3-10-0.9-18.6-1.4-19.1-1.1-1.2-1.2-5.3-0.1-5.8 0.7-0.3 0.5-11.6-1.3-71.8-0.3-12.4-1.2-44-2-70.3-0.7-26.4-1.5-48.1-1.8-48.3-0.2-0.3-6.9-2.1-14.8-4.1-15.5-3.9-15.6-3.9-14.5-5 0.4-0.4 7.6 1 16 3.2l15.4 3.9 0.6 9.6c0.3 5.2 1.5 47.1 2.7 93 1.1 45.9 2.5 84.4 2.9 85.5 0.8 1.9 0.9 1.9 0.9-0.3 0.1-1.7 0.7-2.2 2.6-2.2 2.2 0 2.5 0.4 2.5 3.5 0 3.1 0.3 3.5 2.5 3.5 3.4 0 3.7 4.7 0.3 5.2-2.1 0.3-2.3 0.8-2.3 7.3 0 6.5 0.2 7 2.3 7.3 1.6 0.3 2.2 1 2.2 2.8 0 2-0.5 2.4-2.9 2.4-1.5 0-4.1-1-5.6-2.2l-2.7-2.1 0.6 9.4c0.4 5.2 0.8 17.7 1.1 27.9 0.2 10.2 1.2 47.4 2.1 82.7l1.8 64.3h68.8c54.2 0 69-0.3 69.3-1.3 0.2-0.6 2.2-58.1 4.4-127.7 2.3-69.6 4.3-132.4 4.6-139.5 0.3-7.2 1.5-41.4 2.6-76 2.5-74.3 2.2-93.6-2.1-131.8l-3-26.8 4.4-4.3c2.6-2.6 9.8-7.2 18.2-11.7 11.3-6 15.2-8.7 21-14.4 10.7-10.6 16.4-23.9 16.4-38.5 0-3.4-9-53.7-21.6-120.7-11.8-63.1-23.3-124.5-25.5-136.3-4.7-25.3-6.7-32-12-40-8.7-13-21.9-21.6-38.3-25.1-5-1-27.8-3.5-50.6-5.4l-41.5-3.5-4.9-4.9-4.8-4.9-1.3-23.6-1.3-23.7 3.2-9.2c1.7-5.1 4.3-11 5.8-13.2 1.5-2.2 3.9-7.6 5.3-12 1.4-4.3 3.4-8.8 4.4-10 3.2-3.4 4.6-9.9 3.3-15.3-0.7-2.7-1.1-12.2-1.1-22.7 0.2-31.6-5.3-53-18.4-71.8l-4.1-5.9 4.4-3.6c7.2-5.8 13.1-12.2 14.6-15.8 3.5-8.4 0.4-13.5-10.8-17.9-11.5-4.4-14.6-6.2-21.5-12.6-9.2-8.6-15-10.6-21.2-7.5-3.5 1.8-7.4 10.2-10.6 22.9-2.1 8.5-2.5 9.2-4.7 9-1.2-0.1-7.6-0.5-14.1-0.9l-11.7-0.7-5.7-7.1c-7.7-9.7-29.9-31.7-40.3-40-40.9-32.6-89.4-53.3-141.2-60-11.8-1.6-41-2.7-50.3-2zm39.5 6c63.5 8.2 119.9 36.7 165 83.1 41.1 42.2 65.9 92.4 75.5 152.8 2.2 13.4 3.1 50.7 1.6 65.6-3.4 35.3-12.7 67.4-28.9 99.4-21.2 42.2-52.7 78.1-92.1 105-49.2 33.6-108.9 50.4-169 47.5l-11.4-0.5-3.3-9.5c-1.8-5.2-3.3-9.5-3.4-9.5 0 0 13.4 0 29.7 0 27.8-0.1 30.8-0.3 44.3-2.7 56.7-10.4 103.6-35 142.1-74.4 29.3-30.2 48.6-62.2 61.8-102.7 18-55.4 15.7-119.7-6.4-174.7-19.5-48.6-53.6-90.2-97.9-119.7-23.8-15.9-58.2-30.4-86.6-36.7-33-7.3-74.5-7.7-106.2-1.1-51.9 10.9-95.7 34.3-132.3 71-57.1 57-84.5 137.1-73.9 216.5l0.6 4.5-8.7 4.8c-4.8 2.7-8.9 4.7-9 4.5-1-0.9-3.5-24.4-4.1-37.4-1.7-40 6.6-83.4 23.3-121.4 24.1-54.6 64.5-99.7 115.9-129.6 36.9-21.4 74.7-32.6 124.4-36.8 8.3-0.7 37.4 0.5 49 2zm-17 19.4c33.8 2.5 67.5 11.7 96 26 78.7 39.6 130.7 113.1 141.5 200 2 16.1 2 45.9 0 62-10.2 82.9-61.7 157.3-135.5 195.9-22.8 11.9-47.5 20.5-69.9 24.3-10.5 1.8-16.7 2.2-37.1 2.2-22.4 0.1-42-1.3-45.7-3.3-0.6-0.3-4.7-7.8-9.1-16.6-9.4-18.7-16.2-29.6-28-45.5-9.4-12.5-30-34.2-42.7-45-4.4-3.7-35-26.4-68-50.4-33-24.1-60.3-44.5-60.7-45.5-3.6-9.8-5.8-50.8-3.9-71.7 3.7-40.4 17.7-81.4 39.7-116 14.5-22.9 41.2-51.8 62.4-67.5 50-37.1 103.1-53.2 161-48.9zm303.6 200.9c6.2 2.8 8.9 7.3 8.9 14.7 0 8.6-2.5 11.6-15.8 18.4-5.9 3.1-10.2 5.9-9.9 6.5 2.3 3.7-6.2 28.2-12.5 36.3-1.8 2.2-1.8 1.5-1.8-20.5-0.1-19.9-1-32.9-3.2-45.2-0.4-2.4-0.2-3.2 0.6-2.7 0.6 0.4 0.9 1.2 0.6 1.7-0.4 0.5 0.1 0.9 0.9 0.9 0.8 0 1.8-0.5 2.1-1 0.7-1.1 12.9-7.7 18-9.7 4.3-1.7 7.4-1.5 12.1 0.6zm-12.1 89.5c0.8 15.4 1.4 28 1.3 28.2-0.8 0.7-30.1 13.5-30.3 13.2-0.3-0.3 3.1-15.5 6.4-28.8 3.9-15.2 6.4-22.7 10.6-31 2.4-4.7 5.4-11.8 6.6-15.9l2.4-7.5 0.7 7c0.4 3.8 1.4 19.5 2.3 34.8zm-525.1 35.8c22 16.1 52.7 38.4 68.1 49.7 15.4 11.2 33 24.8 39.1 30.2 47.1 41.5 79.3 99.3 90.3 161.9 2.8 16 2.1 6.4 12.6 158.5 5.2 75.9 10 142.7 10.6 148.5 4.8 46.6 22.9 93.1 51.4 131.5 5.2 7 34.2 40.5 35 40.5 1.6 0-1.1-3.5-15.1-19.6-8.6-9.8-18.2-21.6-21.4-26-26.5-37.2-42.9-80-48-124.9-1.5-13.5-10.1-140.4-9.8-144.2 0.3-3.3 0.4-3.4 28.7-16.8 15.6-7.5 28.5-13.4 28.6-13.3 0.4 0.7 15.5 75.4 15.5 76.8 0 0.8-3.3 3.2-7.7 5.5-8.8 4.6-11.3 7.5-12 13.6-0.5 5.4 1.9 10.5 6.3 13.4l3.1 2.1-2.8 1.6c-3.7 2.1-6.2 7.3-6.2 12.6 0 7.3 5.9 13.2 14.2 14l5 0.4-1.6 2.5c-2.4 3.7-2.3 11.5 0.3 14.9 3.3 4.4 6.8 6.6 11.8 7.1 3.9 0.5 4.6 0.9 4 2.2-0.4 0.9-0.9 3.7-1.2 6.2-0.5 5.9 1.6 10.1 6.6 13.3l3.7 2.3 4.4 21.4c5.4 26.1 5.6 27 8.2 30.3 2.8 3.6 9 6.6 13.6 6.6 2.1 0 10.9-1.4 19.5-3.2 8.6-1.8 15.9-3 16.1-2.8 0.5 0.5 3.7 106.9 3.7 119.7v6.3h3.5 3.5v7.5c0 6-0.3 7.5-1.5 7.5-1.2 0-1.5-1.4-1.5-6.5 0-5.8-0.2-6.5-2-6.5-1.7 0-1.9 0.6-1.5 4.8 1 10.6 1.4 47.3 0.6 46.8-0.5-0.3-9.1-10-19.2-21.6-10.1-11.6-18.6-20.5-18.8-19.9-0.2 0.6 0.8 2.3 2.1 3.7 1.4 1.5 13.9 15.7 27.9 31.7 13.9 15.9 26.2 29.9 27.2 31 1.8 2 1.7 2-16.5 3.7-81.3 7.7-135.1 17-181.5 31.4-34.3 10.6-64.9 24.9-88.1 41-3.5 2.5-6.8 4.2-7.3 3.9-2-1.3-76.9-94.4-85-105.7-38.6-53.9-63.4-119-70.3-184.8-2.2-21.1-10.9-149.7-10.2-151.5 0.3-0.8 1.8-1.5 3.3-1.5 6.3 0 13.3-7.3 13.3-13.8 0-4.7-2.4-9.7-5.9-12.3l-3.1-2.2 2.9-1.8c3.3-2 6.1-7.4 6.1-11.9 0-4.5-2.7-9.7-6.1-11.7-3.4-2-3.6-2.9-0.9-4.3 5-2.7 6.8-13.1 3.4-18.9-1-1.6-3.3-3.8-5.1-4.8-3.7-1.9-4.1-2.8-1.7-3.7 2.6-1 5.7-9.3 4.9-13.4-1.4-7.6-7-12.2-14.8-12.2-4.8 0-5.7-0.9-5.7-5.8 0-5.6-6.1-32.2-10-43.9-9.5-28.5-22.6-52.6-41.3-75.8-8.7-10.8-29.2-30.6-40.2-38.9-4.9-3.7-44.7-29.5-88.3-57.3-50.1-31.9-78.9-50.9-78-51.3 0.7-0.4 6.5-1.7 12.8-3 69-13.4 138-34.7 200-61.5 18-7.7 55.6-26.3 68-33.4 4.7-2.7 8.9-5 9.4-5 0.4-0.1 18.9 13.1 41 29.1zm531 7c-14.4 13.4-43 38.8-43.6 38.8-0.4 0-1.5-1.4-2.3-3.1-1.6-3-1.5-3.5 3.5-17.2 2.9-7.8 5.5-14.8 5.9-15.6 0.4-0.8 7.9-4.7 16.7-8.7l15.9-7.2 4.4 4.3 4.3 4.2zm51 0.3c22.4 2 44 4.2 48 5 19.5 4 36.4 18.2 42.5 35.6 2.1 5.9 2.5 7.8 33.1 171.1 21.3 113.5 21.7 116.7 18.4 127.9-3.3 11-9.8 20.8-18.2 27.1-2.7 2.1-31.6 18.3-64.3 36.1-32.7 17.8-62.3 34-65.9 35.9-35.3 19.3-97.6 53.1-101.8 55.2-6.6 3.3-8.2 2.5-8.2-4.1 0-7.2-2.9-24.6-5.6-34.1-5.6-19.4-14.1-34.7-26-47-7.3-7.6-8.6-10-6.1-11.9 4.3-3.5 181.1-97.9 185.2-99 6-1.6 17.6-1.7 22.8-0.2 4.7 1.3 6.1 0.4 2.1-1.2-4.8-1.9-17.3-2.2-24.1-0.6-5.7 1.3-6.3 1.3-6.7-0.2-0.3-0.9-8-42.8-17.1-93.1-9.1-50.3-17-92.4-17.5-93.5-0.8-1.8-0.9-1.7-0.9 0.9-0.1 1.5 4.2 42 9.4 90 5.2 47.9 9.6 88.2 9.8 89.5 0.2 2.1-5.4 6.3-47.3 35.3-26.1 18.1-48.7 33.6-50.2 34.3l-2.6 1.5-0.7-6.3c-0.3-3.4-3.5-47.7-7-98.5-5-71.4-6.5-97.2-6.5-114.5 0-21.1 1.4-62.8 2.5-76.7 1.5-18.6 2.9-29.9 3.5-29.5 0.4 0.3 1.3 1.8 2 3.5 0.7 1.6 1.6 3 2 3 0.4 0 12-10.1 25.6-22.5 15.1-13.5 25.7-22.4 27-22.5 1.1 0 20.4 1.6 42.8 3.5zm-146.3 116.4c-2.3 18.6-3.1 56-3.1 148.5v94.9l7.6 11.9c4.2 6.5 7.5 12 7.3 12.2-0.2 0.1-3.9 2.1-8.2 4.4l-7.8 4.2h-33.2c-30.9 0.1-33.3-0.1-35.7-1.8-6.1-4.6-5.8-0.4-6.5-84.7l-0.7-77-7.5-18.5c-4.2-10.2-8.6-21.5-9.8-25.1l-2.3-6.6 16.2-8.1c27.7-14 51-30.8 72.6-52.6 6.2-6.3 11.6-11.4 11.8-11.1 0.2 0.2-0.1 4.4-0.7 9.4zm-99.3 69.8c1.3 3.8 5.3 13.9 8.9 22.6l6.5 15.9-11.2 22.1c-12.8 25.1-13.7 26.7-14.4 24.6-1.1-3.5-3.4-15.5-3-16 0.2-0.4 2.4-1 4.8-1.3 5.1-0.8 9.6-5.1 9.6-9 0-1.3-2.7-15.3-6-31.1-3.3-15.8-6-29.4-6-30.1 0-1.3 5-4.1 7.5-4.3 0.6-0.1 2.1 2.9 3.3 6.6zm-115.1 30.6l3 14.2-10.1 19.7c-5.6 10.8-10.3 19.5-10.4 19.3-0.2-0.2-0.8-5.4-1.3-11.7-1.2-13.8-4.1-31-7.4-44.1-1.4-5.4-2.5-10.3-2.5-11 0-0.9 3.3-1.1 12.8-0.9l12.9 0.3zm133.2 126.2c0.1 36.3 0.3 39.3 2.1 43.3 1.1 2.4 3.2 5 5 6 2.6 1.5 3 2.3 3 6v4.3l-5.7-0.3-5.8-0.3-9.2-44.5c-5.1-24.5-10.9-52.6-12.9-62.6l-3.7-18 9.3-18.5c5.1-10.1 10.9-21.3 12.9-24.9l3.6-6.5 0.6 38.5c0.3 21.2 0.7 56 0.8 77.5zm-126.1-91.8c1.8 8.6 3.8 16.3 4.5 17.1 2.4 2.9 7 4.1 11.6 3.1 2.4-0.5 4.6-0.7 4.9-0.4 1 1 20.1 95 19.4 95.7-0.7 0.7-40.7 19.8-41.5 19.8-0.2 0-0.7-6.9-1.1-15.3-1.5-32.4-5.3-70.9-9.9-101.1l-2.3-14.9 5-9.8c2.8-5.4 5.3-9.9 5.6-9.9 0.3 0 2 7 3.8 15.7zm111.1 93.8c10 48.4 18.4 88.7 18.6 89.6 0.4 1.2-4.4 3-25.2 9.2-24 7.2-26.5 7.7-34.9 7.7h-9.1l-1.6-7.8c-18.5-89.1-35.8-173.5-35.5-173.6 1.1-0.9 68.4-14.2 68.9-13.7 0.4 0.3 8.9 40.2 18.8 88.6zm-398.3-0.2c6.5 5.9 5.3 16.1-2.4 20.1-1.7 0.9-8.1 2-14.4 2.7-13.4 1.3-17.4 0.2-20.8-5.3-3.6-6-1.6-14.8 4.2-17.9 2.8-1.5 11.5-2.6 22.1-2.8 7.4-0.1 7.9 0 11.3 3.2zm2.2 25.7c8 4.9 7.5 17.6-0.9 22-2.4 1.4-29 4-32.1 3.3-11.2-2.9-13.5-17.9-3.5-23.5 2.5-1.4 18.1-3.5 27.2-3.7 4.4-0.1 6.9 0.4 9.3 1.9zm726.2 19.5c0 0.2-1 0.9-2.2 1.5-2.2 1.1-2.2 1-0.4-0.4 2.1-1.7 2.6-1.9 2.6-1.1zm-726.5 6.9c4.2 1.8 7.5 6.9 7.5 11.6 0 4.6-3.3 9.8-7.3 11.4-1.7 0.8-8.1 1.9-14.2 2.4-9.7 1-11.4 0.9-14.5-0.6-5.1-2.5-8.3-7.7-7.7-12.5 1.1-8.4 5.5-11.2 19.2-12.6 13.2-1.2 13.3-1.2 17 0.3zm460.7 7.7c7.2 2.4 14.9 7.2 19.7 12.3 1.9 2 3.9 3.6 4.3 3.6 1.7 0-2.6-5.1-7.4-9l-4.9-3.9 4.9-2.5 5-2.5 7.4 7.8c17.5 18.2 28.8 45.7 30.5 74.3l0.6 9.6-7.1 3.6c-3.9 2-7.4 3.6-7.7 3.6-0.5 0 0.1-5.8 1.1-10.8 0.2-1.2 0-2.2-0.4-2.2-0.5 0-1.4 3.2-2.1 7.2-2.4 14.8-12.6 28.9-25.1 34.9-3 1.5-21.5 7.5-41 13.4l-35.5 10.8-15.7 0.4c-8.7 0.3-17.3 0.2-19.2-0.1-4.8-0.9-9.3-5-10.7-9.6-1-3.2-0.9-4.4 0.7-7.7l1.9-3.8 13-0.5c11.6-0.5 14.5-1 27.5-4.9 13.3-4 18.5-6.1 15.1-6.1-0.8 0-8.1 2-16.3 4.5l-15 4.5h-17.1c-15.5 0-17.5-0.2-20.5-2-6.4-3.9-7.9-13.5-3-18.7 2.2-2.3 2.7-2.4 14.8-2.2 12.5 0.2 12.5 0.2 30-5.1 9.6-2.9 18.2-5.6 19-6.1 3.9-2.2-3.3-0.5-20.5 4.7l-18.5 5.5-17.6-0.7c-20.2-0.8-22.8-1.7-25.3-9-1.8-5.2-0.9-8.8 3.4-13.1l3.3-3.3h17 16.9l16.9-5.1c9.3-2.8 17.1-5.3 17.3-5.5 1.7-1.6-2.6-0.8-15.5 3.1l-14.9 4.5h-18.8-18.7l-3.8-3.4c-3.4-3.2-3.7-3.9-3.7-8.9 0-6.9 2.1-9.4 11.8-14.3 5.1-2.6 6.7-3.1 6.7-1.9 0 0.8-0.4 1.5-1 1.5-0.5 0-1 0.4-1 1 0 0.6 4.4 1 11.2 1 10.9 0 11.6-0.1 34.7-7 33.3-10 34.7-10.6 37.7-17.7 1.6-3.8 1.9-10.7 0.4-9.8-0.5 0.3-1 2.3-1 4.3 0 2-0.4 4.2-0.8 4.8-0.9 1.4-7 2.6-7.7 1.4-0.5-0.9-5.5-24.4-5.2-24.7 0.4-0.4 27-2 35-2.2 6.5-0.1 10.3 0.4 14.9 2zm-457.1 22.8c3.3 3.2 3.9 4.5 3.9 8 0 9.4-4.9 13.2-17.9 13.9-9.6 0.5-13.5-0.9-16.4-5.8-2.8-4.7-2.2-10.5 1.6-14.5 3.6-4 7.9-5.2 18.6-5.4 6.1-0.1 6.5 0 10.2 3.8zm416.9 5.6c-0.7 0.8-1.9 1.5-2.6 1.5-0.8 0-1.4-0.7-1.4-1.5 0-1 1-1.5 2.6-1.5 2.2 0 2.5 0.2 1.4 1.5zm283.4 6.7c0.9 4.8 3.4 27.5 4.6 41.3 1.9 22.9 1.3 81.2-3.5 307.2-0.8 39.1-1.5 74.8-1.5 79.2 0 5.5-0.4 8.1-1.2 8.1-0.8 0-0.9-8.1-0.5-32.3 0.4-17.7 1.4-66.2 2.2-107.7 0.8-41.5 1.7-84.3 2-95 1.4-54.7 1.7-141.2 0.6-156-1.2-14.9-3.4-35.8-4.7-44.1-0.8-4.8 1.1-5.4 2-0.7zm-265.4 107.6c0 0.5 1.8 9.6 4.1 20.3 2.6 12.4 3.9 21.1 3.6 24-0.4 5.3-3.5 10.2-7.7 12.4-3.8 2-40.3 9.5-46.1 9.5-5 0-9.8-2.6-13.1-7-1.1-1.6-3.6-11-6.6-25.5l-4.8-23 7.1-0.6c3.8-0.4 11.7-0.7 17.5-0.8 9.5-0.1 12-0.6 26.5-5 16.4-5.1 19.5-5.7 19.5-4.3zm15.8 147.8c2 2.2 2.2 3.6 2.2 12.5v10l-2.7-0.3c-2.8-0.3-2.8-0.4-3.1-8.8-0.2-4.6-0.8-9-1.4-9.7-1.3-1.7-6.4-1.7-7.5-0.1-0.4 0.7-1 5.1-1.3 9.8-0.5 8.4-0.5 8.5-3.2 8.8l-2.8 0.3v-12.5-12.6h3c1.7 0 3 0.4 3 1 0 0.5 1.5 0.3 3.3-0.5 4-1.8 7.6-1.1 10.5 2.1zm24-1c2.6 1.7 2.6 4.7-0.1 5.2-0.9 0.2-2.4-0.4-3.3-1.2-1.9-2-4.8-2-6.4-0.1-1.7 2-0.6 3.1 4.5 4.4 8.2 2.1 10.9 7.7 6 12.6-4.2 4.3-14 3-16.3-2.1-1.6-3.4 1.8-4.2 5.7-1.4 3.3 2.5 7.1 2 7.1-0.9 0-1.4-1.5-2.4-5.7-3.7-6.8-2.2-8.9-5.5-6.2-10.2 2.9-5.2 9-6.3 14.7-2.6zm23.6-1.6c3.2 1.2 6.6 4.5 6.6 6.4 0 2.5-3.7 2.9-5.9 0.7-4.6-4.6-11.5-1.2-11.5 5.6 0 6.3 7.1 9.6 11.4 5.3 3.3-3.3 6.8-2.2 5.6 1.8-1.6 4.9-11.6 6.7-17.4 3.2-3.8-2.3-5.2-5.4-5.2-11.4 0-8.5 8.6-14.6 16.4-11.6zm30.2 1.5c5.2 3.4 7 10.3 4.5 16.7-3.3 8.5-18.4 9-22.6 0.8-6.2-12 6.9-24.8 18.1-17.5zm17.4 7.3c0 9.3 0.8 11.2 4.6 11.2 4.3 0 5.4-2.4 5.4-11.6v-8.4h3 3v12.5 12.5h-2.4c-1.4 0-2.8-0.5-3.1-1-0.4-0.7-1.2-0.7-2.5 0-3.5 1.9-8.9 1.2-11.5-1.5-2.3-2.2-2.5-3.1-2.5-12.5v-10h3 3zm-104 30.7c0 0.8-0.4 1.5-0.9 1.5-1.3 0-2.2-1.6-1.4-2.4 1.1-1.1 2.3-0.6 2.3 0.9zm29 3v4.5h5 5v-4.5c0-3.3 0.4-4.5 1.5-4.5 1.2 0 1.5 1.8 1.5 10 0 8.2-0.3 10-1.5 10-1.1 0-1.5-1.2-1.5-4.5v-4.5h-5-5v4.5c0 2.5-0.4 4.5-1 4.5-0.6 0-1-4-1-10 0-6 0.4-10 1-10 0.6 0 1 2 1 4.5zm-29 8c0 6-0.3 7.5-1.5 7.5-1.2 0-1.5-1.5-1.5-7.5 0-6 0.3-7.5 1.5-7.5 1.2 0 1.5 1.5 1.5 7.5zm15 0c0 4.3-0.4 7.5-1 7.5-0.5 0-1-1.4-1-3 0-4.1-3.5-4.1-5.8 0-0.9 1.6-2.3 3-2.9 3-1.7 0-1.6-0.6 0.3-3.6 1.5-2.3 1.5-2.6 0-4.3-2-2.2-2-3 0.1-5.3 1.1-1.2 3-1.8 6-1.8h4.3zm41.4-5.3c3 4.3 2.1 5.8-3.4 5.8-5.2 0-6 0.8-3.4 3.4 1.8 1.8 5 2.1 5.9 0.6 0.4-0.6 1.1-0.7 1.7-0.4 1.6 1-2.1 3.4-5.2 3.4-5.6 0-8.5-8.5-4.4-13.1 2.4-2.6 6.9-2.5 8.8 0.3zm14.8 0c1.4 1.4 1.7 2.3 1 2.6-0.7 0.2-1.9-0.4-2.8-1.2-3.1-3.2-6.4-1.1-6.4 3.9 0 5 3.3 7.1 6.4 3.9 0.9-0.8 2.1-1.4 2.8-1.2 1.9 0.7-2.9 4.8-5.6 4.8-2.9 0-6.6-4.2-6.6-7.5 0-3.3 3.7-7.5 6.6-7.5 1.3 0 3.4 1 4.6 2.2zm15.8-1.2c0 0.5-1.1 1-2.5 1-2.4 0-2.5 0.2-2.5 6.5 0 5.1-0.3 6.5-1.5 6.5-1.2 0-1.5-1.4-1.5-6.5 0-6.3-0.1-6.5-2.5-6.5-1.4 0-2.5-0.5-2.5-1 0-0.6 2.8-1 6.5-1 3.7 0 6.5 0.4 6.5 1zm11.4 1.2c3 4.3 2.1 5.8-3.4 5.8-5.2 0-6 0.8-3.4 3.4 1.8 1.8 5 2.1 5.9 0.6 0.4-0.6 1.1-0.7 1.7-0.4 1.6 1-2.1 3.4-5.2 3.4-5.6 0-8.5-8.5-4.4-13.1 2.4-2.6 6.9-2.5 8.8 0.3zm14.8-0.5c1.2 1.1 1.8 3.1 1.8 5.9 0 5.2-2.2 7.8-6.2 7.2-2.6-0.4-2.8-0.2-2.8 2.9 0 2.3-0.5 3.3-1.5 3.3-1.2 0-1.5-1.8-1.5-10.3v-10.3l4.2-0.1c2.7-0.2 4.9 0.4 6 1.4zm22.8 1.8c0 3.3 0.2 3.5 3.5 3.5 3.3 0 3.5-0.2 3.5-3.5 0-2.4 0.5-3.5 1.5-3.5 1.2 0 1.5 1.5 1.5 7.5 0 6-0.3 7.5-1.5 7.5q-1.5 0-1.5-3c0-2.8-0.3-3-3.5-3-3.2 0-3.5 0.2-3.5 3 0 1.6-0.4 3-1 3-0.6 0-1-3.2-1-7.5 0-4.3 0.4-7.5 1-7.5 0.6 0 1 1.6 1 3.5zm16-0.6c0 4.4 1.4 4.5 4.4 0.6 1.5-1.9 3.4-3.5 4.2-3.5 1.2 0 0.8 1-1.4 3.8l-3 3.7 3.1 3.5c2.1 2.4 2.6 3.5 1.7 3.8-0.8 0.3-2.6-0.9-4.2-2.7-3.5-3.9-4.8-3.9-4.8-0.1 0 1.6-0.4 3-1 3-0.6 0-1-3.2-1-7.5 0-4.3 0.4-7.5 1-7.5 0.6 0 1 1.3 1 2.9zm23-0.9c4.3 4.3 1.3 13-4.5 13-3.6 0-6.5-3.3-6.5-7.5 0-4.2 2.9-7.5 6.5-7.5 1.4 0 3.4 0.9 4.5 2z"/>
		<path class="s0" d="m725 156c0 1.4 0.9 14.6 2 29.5 1.1 14.8 2 27.3 2 27.7 0 0.4-2.6 0.9-5.7 1.3-27.4 3.1-50.2 9.3-72.2 19.6-5.7 2.7-10.7 4.9-11.2 4.9-0.4 0-9.3-11.9-19.9-26.5-10.5-14.5-19.5-26.7-20-27-3-1.8-0.9 1.2 21.2 31.8 8.7 12 16 22.2 16.1 22.6 0.1 0.5-4.7 4.1-10.7 8.1-12.8 8.6-28.4 23.1-36.9 34.5-7.3 9.7-15 25.2-17.8 36-2.7 10.3-3 27.9-0.6 37.8 11 44.7 61.1 78.6 128.2 86.8 14.2 1.7 43.5 1.4 58.5-0.5 45.8-6 86.1-23.6 112.7-49 19.5-18.6 29.4-36.5 32.5-58.9 3.9-28.5-11.3-60.1-40-82.9-9.1-7.3-25.2-16.7-37.1-21.8-5.6-2.4-10-4.8-9.9-5.5 0.2-0.6 6.8-13.3 14.7-28.3 7.9-15 14-27.6 13.7-27.9-0.8-0.9 0.3-2.9-15.5 27.2-7.8 14.8-14.5 27.5-14.9 28.2-0.6 0.9-2.7 0.6-8.6-1.2-18.2-5.6-38.5-8.5-59.7-8.5h-14.7l-0.6-3.8c-0.3-2-1.3-15.2-2.2-29.2-0.9-14-2-25.9-2.5-26.5-0.5-0.5-0.9 0.1-0.9 1.5zm45.5 61.1c12.5 1.4 29.9 5.4 41.9 9.5 10.4 3.6 32.1 13.9 36.6 17.4 1.4 1-2.4-0.5-8.4-3.5-29.4-14.5-64.5-21.4-102.1-20.2-35.9 1.2-67.6 8.8-96 22.9-9.1 4.6-24 13.6-29.1 17.7-1.1 0.9-0.2-0.1 2-2.2 6.6-6.1 21.2-15.4 34.1-21.7 36.8-18 78.2-24.8 121-19.9zm1 5.9c14.7 1.6 30.2 5 44.2 9.5 25.7 8.4 44.4 19.5 60.3 35.5 11 11.1 17.7 21.5 22.3 34.7 2.8 8.2 3.1 9.8 3.1 22.8 0 16.3-1.6 22.8-9 37.4-11.5 22.6-32.7 41.6-62.9 56.6-8.2 4.1-19 8.8-24 10.4-59 19.7-125.6 16.4-174-8.5-30.4-15.7-50.4-37.5-57.7-63.1-3.1-11-3.1-28.6 0-39.6 9.8-34.5 42.8-65 88.7-82.2 16.8-6.3 41.2-11.8 60.5-13.8 7.9-0.8 40.1-0.6 48.5 0.3z"/>
		<path class="s0" d="m718.1 263.1c-33.6 6.6-57.4 35.4-57.4 69.4 0 12.3 1.9 20.1 7.7 32 9.2 18.7 26.9 32.5 47.4 37.1 11 2.4 27.2 1.6 37.7-2 44.1-15 62.1-67.6 36.4-106.1-13.3-19.8-35.7-31.7-59.1-31.4-4.6 0.1-10.3 0.5-12.7 1zm35.1 19.8c6.9 3.2 10.6 5.6 9.7 6.5-0.3 0.3-3.4-1-7-2.8-3.5-1.9-8.6-4-11.4-4.7-6.9-1.6-8.4-3.3-2.3-2.6 2.6 0.4 7.6 2 11 3.6zm26.6 25.2c4.1 8.2 6.6 19.5 5.8 27.5-0.7 7.8-2.6 15.4-3.8 15.4-0.6 0-0.8-1-0.4-2.3 0.3-1.2 1.1-5.6 1.7-9.8 1.4-9.4-0.4-19.9-5.3-29.8-1.7-3.6-3.4-7-3.6-7.5-0.3-0.5 0.2-0.6 0.9-0.4 0.8 0.2 2.9 3.3 4.7 6.9z"/>
		<path class="s0" d="m1035.3 271.5c-4 1.7-7.3 6.9-7.3 11.3 0 3.6 2.5 9.2 4 9.2 1.4 0 1.2-1.2-0.5-3.4-2.4-3.1-1.9-6.5 1-7.2 3.4-0.8 6.6 0.1 9.3 2.7 2.8 2.6 4.2 1.7 1.7-1.1-2.3-2.5-7.9-4.4-11.1-3.6-2.2 0.6-2.4 0.5-1.5-1.3 3.4-6.3 11.7-8 17.1-3.5 3.3 2.8 5.3 2.6 2.9-0.2-1.7-2.1-7.1-4.4-10.1-4.4-1.3 0.1-3.8 0.7-5.5 1.5z"/>
		<path class="s0" d="m830.9 1117.7c9.3 10.9 12.9 14.8 13.5 14.2 0.8-0.8-14.6-18.7-16.2-18.8-0.8-0.1 0.4 2 2.7 4.6z"/>
		<path class="s0" d="m846 1134.4c0 0.9 0.7 1.9 1.5 2.3 2.5 0.9 2.7-0.2 0.5-2.2-1.8-1.7-2-1.7-2-0.1z"/>
		<path class="s0" d="m1113.5 412.1c-11 7-20.5 20.5-23.9 34.2-2 7.8-3.1 22-1.9 24.2 0.7 1.2 1.2-1.2 1.6-8.7 1.2-22.1 11-40 26.5-48.9 3.9-2.2 5.3-3.9 3.4-3.9-0.4 0-3 1.4-5.7 3.1z"/>
		<path class="s0" d="m979.7 1094.8c-2.1 2.3-2.2 8.1-0.1 11 2 2.8 7.4 3 9.8 0.3 2.4-2.7 2.5-8.5 0.1-11.1-2.3-2.5-7.6-2.7-9.8-0.2z"/>
		<path class="s0" d="m912.1 1133.9c-2.3 1.5-0.5 4.1 2.9 4.1 2.5 0 3-0.4 3-2.5 0-1.9-0.5-2.5-2.2-2.5-1.3 0-2.9 0.4-3.7 0.9z"/>
		<path class="s0" d="m954.6 1134.6c-2.2 2.2-2.1 2.4 1.9 2.4 3.7 0 4.9-2.2 1.9-3.4-2.1-0.8-2-0.8-3.8 1z"/>
		<path class="s0" d="m996.6 1134.6c-2.2 2.2-2.1 2.4 1.9 2.4 3.7 0 4.9-2.2 1.9-3.4-2.1-0.8-2-0.8-3.8 1z"/>
		<path class="s0" d="m1011.9 1134c-2.1 1.2-1.1 9.3 1.2 9.8 4 0.8 6.5-6.1 3.3-9.2-1.8-1.8-2.3-1.9-4.5-0.6z"/>
		<path class="s0" d="m1072.5 1135.4c-2.9 4.4 0.3 9.8 4.8 8.1 3.7-1.5 2.2-10.5-1.8-10.5-0.8 0-2.2 1.1-3 2.4z"/>
		<path class="s0" d="m1027.2 1134.2c-2 2-1.4 2.8 2.3 2.8 1.9 0 3.5-0.4 3.5-0.8 0-1.2-2.2-3.2-3.5-3.2-0.6 0-1.6 0.5-2.3 1.2z"/>
		<path class="s0" d="m1026.2 1140.6c0.8 4 6.8 4.4 6.8 0.4 0-1.6-0.6-2-3.6-2-2.8 0-3.5 0.4-3.2 1.6z"/>
		<path class="s0" d="m0 1445.5v50.5h750 750v-50.5-50.5h-750-750zm68.3-16.3c1.9 2.9 4.8 7.9 6.6 11l3.2 5.8-4.8 8.2c-2.7 4.6-5.6 8.4-6.4 8.6-0.9 0.1-2.4-1.3-3.6-3.5-2.1-3.8-2.1-3.8-0.2-7.3q3.45-6.45 0.3-12c-4.7-7.9-16.8-7.9-20.9 0-4.1 7.9 0.8 16.7 9.8 17.7 4 0.5 5 1.1 6.8 4 3.4 5.5 2.3 6.3-8.3 6.3-5.1 0-9.8-0.4-10.3-0.8-1.4-0.9-12.5-20.1-12.5-21.5 0-0.6 2.7-5.7 6.1-11.4l6.1-10.3h12.4 12.4zm209.4 28c-0.1 6.2-0.3 1.2-0.3-11.2 0-12.4 0.2-17.4 0.3-11.3 0.2 6.2 0.2 16.4 0 22.5zm-183.7-24.7c0 2-0.5 2.5-2.5 2.5-2 0-2.5-0.5-2.5-2.5 0-2 0.5-2.5 2.5-2.5 2 0 2.5 0.5 2.5 2.5zm155 3c0 1.8 0.5 2.5 2 2.5 1.3 0 2 0.7 2 1.9 0 1-0.9 2.1-2 2.4-1.6 0.4-2 1.4-2 5.2 0 3.8 0.4 4.8 2 5.2 1.1 0.3 2 1.4 2 2.4 0 1.4-0.7 1.9-2.8 1.9-4.1 0-5.2-1.7-5.2-8.3 0-5-0.3-6-2-6.4-1.1-0.3-2-1.1-2-1.9 0-0.7 0.9-1.8 2-2.4 1.1-0.6 2-2 2-3 0-1.3 0.7-2 2-2 1.5 0 2 0.7 2 2.5zm1084 7.8v10.3l-4.5 0.2c-3.6 0.1-4.7-0.3-6-2-2-2.9-1.9-7.8 0.1-10.7 1.4-1.9 2.3-2.2 5-1.8 3.3 0.6 3.4 0.5 3.4-2.9 0-1.9 0.5-3.4 1-3.4 0.6 0 1 4.1 1 10.3zm-16 0.7c0 6-0.4 10-1 10-0.6 0-1-4-1-10 0-6 0.4-10 1-10 0.6 0 1 4 1 10zm40 0c0 6-0.4 10-1 10-0.6 0-1-3.5-1-8.6v-8.6l-2.5 0.6c-1.4 0.4-2.5 0.3-2.5-0.2 0-0.7 4.2-2.8 6.3-3.1 0.4-0.1 0.7 4.4 0.7 9.9zm18.6-7.5c2.1 3.1 1.2 5.5-4.2 11.4l-3.6 4.1h4.5c2.5 0 4.9 0.4 5.2 1 0.4 0.6-1.8 1-5.9 1-3.6 0-6.6-0.4-6.6-0.8 0-0.5 1.4-2.1 3.1-3.8 7.3-7 8.7-13.4 2.9-13.4-2 0-3.3 0.7-4.1 2.2-0.8 1.5-1.4 1.8-1.7 1-0.7-2.1 2.9-5.2 5.9-5.2 2 0 3.4 0.8 4.5 2.5zm15.2-1.3c1.5 1.5 1.6 6 0.2 7.4-0.8 0.8-0.6 1.5 0.5 2.4 3.5 2.9 0.2 9-5 9-5.2 0-8.5-6.1-5-9 1.1-0.9 1.3-1.6 0.5-2.4-1.4-1.4-1.3-5.9 0.2-7.4 0.7-0.7 2.6-1.2 4.3-1.2 1.7 0 3.6 0.5 4.3 1.2zm15.8 1.3c2.1 3.1 1.2 5.5-4.2 11.4l-3.6 4.1h4.5c2.5 0 4.9 0.4 5.2 1 0.4 0.6-1.8 1-5.9 1-3.6 0-6.6-0.4-6.6-0.8 0-0.5 1.4-2.1 3.1-3.8 7.3-7 8.7-13.4 2.9-13.4-2 0-3.3 0.7-4.1 2.2-0.8 1.5-1.4 1.8-1.7 1-0.7-2.1 2.9-5.2 5.9-5.2 2 0 3.4 0.8 4.5 2.5zm17.4-1.5c0 0.5-2 1-4.5 1-4.1 0-4.5 0.2-4.5 2.5 0 2.1 0.5 2.5 2.9 2.5 3.9 0 6.1 2.4 6.1 6.5 0 4.1-2.2 6.5-6 6.5-3 0-6.4-3.5-5.3-5.4 0.4-0.5 1.1 0 1.6 1.2 1.4 3.1 6.4 3 7.6-0.1 1.5-4-0.2-6.2-4.8-6.1-3.8 0.1-4.1-0.1-4.1-2.5 0-6.1 0.9-7.1 6.1-7.1 2.7 0 4.9 0.4 4.9 1zm16-0.6c0 1.5-9.3 19.9-9.6 19-0.3-0.5 1.1-4.5 3.1-8.6 1.9-4.2 3.5-7.9 3.5-8.2 0-0.3-2.2-0.6-4.9-0.6-2.8 0-5.3-0.5-5.6-1-0.4-0.6 2-1 6.4-1 3.9 0 7.1 0.2 7.1 0.4zm13.6 2.1c1.5 2.3 1.5 2.7 0.1 4.9-1.4 2.1-1.4 2.6-0.2 3.6 3.5 2.9 0.3 9-4.7 9-2.9 0-6.8-3-6.8-5.3 0-0.7 0.6-2.2 1.4-3.3 1-1.3 1.1-2.5 0.5-3.5-2.3-3.7 0.3-7.9 5.1-7.9 2 0 3.5 0.8 4.6 2.5zm15.4 4.5c0 6 0.3 7 1.8 7.1 1.6 0.1 1.6 0.2 0 0.6-1.1 0.3-1.8 1.4-1.8 2.9 0 3-1.8 3.2-2.2 0.1-0.2-1.8-1.1-2.3-5-2.7l-4.8-0.5 4.8-7.2c2.6-4 5.3-7.3 6-7.3 0.8 0 1.2 2.1 1.2 7zm-1167-1.5v4.5h5.5 5.5v-4.5c0-2.5 0.5-4.5 1-4.5 0.6 0 1 4 1 10 0 6-0.4 10-1 10-0.5 0-1-2.3-1-5.1v-5l-5.2 0.3-5.3 0.3-0.3 4.7c-0.6 8.8-2.2 5-2.2-5.2 0-6 0.4-10 1-10 0.6 0 1 2 1 4.5zm79-3.5c0 0.5-0.4 1-1 1-0.5 0-1-0.5-1-1 0-0.6 0.5-1 1-1 0.6 0 1 0.4 1 1zm28 3.5v4.5h5.5 5.5v-4.5c0-2.5 0.5-4.5 1-4.5 0.6 0 1 4 1 10 0 6-0.4 10-1 10-0.5 0-1-2.3-1-5v-5h-5.5-5.5v5c0 2.7-0.4 5-1 5-0.6 0-1-4-1-10 0-6 0.4-10 1-10 0.6 0 1 2 1 4.5zm-350.7 1.7c5.5 6.4-3.1 15.1-10.1 10.2-1.6-1.1-2.2-2.5-2.2-5.3 0-7.2 7.6-10.3 12.3-4.9zm35.5 6.6l0.3 9.2h-2.6c-2.5 0-2.5 0-2.5-8.8 0-9.2 0.4-10.5 3-10 1.2 0.3 1.6 2.2 1.8 9.6zm19.8-7.3c2.6 2.6 2.5 4.5-0.2 4.5-0.9 0-2.2-0.7-3.1-1.6-2.2-2.1-5.5-1.4-7.2 1.8-1.3 2.3-1.3 3-0.1 5.2 1.5 2.9 5.9 3.6 7.9 1.2 1.1-1.4 5.1-1.1 5.1 0.3 0 1.2-4.4 4.8-6.6 5.5-5.2 1.6-11.4-3.7-11.4-9.7 0-8.3 9.9-12.9 15.6-7.2zm20.5 0.4c7.6 7.7-0.8 20.2-10.5 15.6-9.2-4.4-6.2-18.5 3.9-18.5 2.7 0 4.4 0.8 6.6 2.9zm11.5-1.8c0.4 0.8 0.9 0.8 1.7 0 1.3-1.3 5.6-1.4 7.4-0.3 2 1.3 3.3 6.1 3.3 12.3 0 5.6-0.1 5.9-2.5 5.9-2.4 0-2.5-0.2-2.5-6.9 0-6.1-0.2-7-2-7.6-3.6-1.1-5 1.2-5 8.1 0 6.2-0.1 6.4-2.5 6.4-2.5 0-2.5-0.1-2.5-8.8 0-4.9 0.3-9.2 0.7-9.5 1-1.1 3.1-0.8 3.9 0.4zm28.5 1c2 2 2 2.2 0.4 3.1-1.1 0.7-2.1 0.6-2.8-0.1-0.6-0.6-2.1-1.1-3.4-1.1-3.3 0-2.9 2.8 0.5 3.6 4.4 1 7.2 3.3 7.2 5.8 0 5.7-9.4 8.3-13.2 3.6-1.7-2.1-1.8-2.4-0.3-3.3 1.1-0.6 2.2-0.4 3.5 0.8 2.1 1.9 5.5 1.7 5.5-0.4 0-0.7-1.8-1.9-3.9-2.6-2.1-0.8-4.3-2-4.7-2.7-4-6.2 5.9-12 11.2-6.7zm19.7-0.1c1.2 1.2 2.2 2.5 2.2 3.1 0 1.8-3.1 2.2-4.9 0.5-2.2-2-4-2-6.3 0.1-3.5 3.1-1.5 9.3 2.9 9.3 1.5 0 3.4-0.7 4.2-1.4 1.1-1 2.1-1.2 3.1-0.6 2 1.2 0.3 4-3.4 5.8-3.3 1.7-8.8 0.1-11.1-3.1-1.8-2.6-1.9-9.6-0.2-11.8 3.3-4.2 10-5.2 13.5-1.9zm19.9-0.5c2.6 1.9 4.7 7.7 3.8 10.7-1.8 5.6-6.9 8.5-12.1 6.8-4.3-1.5-6.4-4.5-6.4-9.3 0-7.5 8.7-12.4 14.7-8.2zm12.3 5.5c0 5.7 0.3 7.1 1.9 7.9 3.3 1.8 5-0.7 5.3-7.9 0.3-5.9 0.5-6.5 2.6-6.8 2.1-0.3 2.2-0.1 2.2 9.2 0 8.9-0.1 9.6-2 9.6-1.1 0-2-0.5-2-1 0-0.6-1.1-0.3-2.5 0.6-2.1 1.4-3 1.4-5.5 0.4-3.4-1.4-5-5.6-5-13.1 0-5 0.5-5.9 3.2-5.9 1.6 0 1.8 0.9 1.8 7zm1113-5c0 0.5-0.4 1-1 1-0.5 0-1-0.5-1-1 0-0.6 0.5-1 1-1 0.6 0 1 0.4 1 1zm-1009.6 2.2c1.8 2.5 2.2 12.8 0.6 12.8-0.5 0-1-0.4-1-0.9 0-0.5-1.4-0.4-3 0.2-2.2 0.8-3.5 0.9-4.8 0.1-4.3-2.8-1.3-8.4 4.5-8.4 2.7 0 3.4-0.4 3.1-1.8-0.4-2-5.5-2.9-7.1-1.3-2 2-3 1.1-1.2-0.9 2.4-2.7 7-2.6 8.9 0.2zm15.6-1.2c0 0.5-1.1 1-2.5 1-2.4 0-2.5 0.2-2.5 6.5 0 3.7-0.4 6.5-1 6.5-0.6 0-1-2.8-1-6.5 0-6.3-0.1-6.5-2.5-6.5-1.4 0-2.5-0.5-2.5-1 0-0.6 2.7-1 6-1 3.3 0 6 0.4 6 1zm11.8 0.2c1.2 1.6 2.1 13.8 1 13.8-0.4 0-0.8-0.4-0.8-0.9 0-0.5-1.4-0.4-3 0.2-3.7 1.4-6.3 0.1-6.8-3.3-0.5-3 2.1-5 6.4-5 2.7 0 3.1-0.3 2.7-2-0.6-2.3-5.1-2.8-7.1-0.8-0.6 0.6-1.4 0.9-1.7 0.6-0.3-0.3 0.1-1.3 1-2.2 1.9-1.9 6.8-2.1 8.3-0.4zm17 6.5l-0.2 7.8-0.3-6.8c-0.4-6.6-0.4-6.7-3.3-6.7-2.7 0-2.9 0.3-3.5 4.7-0.7 5.9-1.7 7.7-4.1 8.1-1.8 0.3-1.8 0.2-0.1-1.1 1.1-0.9 1.9-3.5 2.3-7.6l0.7-6.1h4.3 4.4zm7.2-0.2c0 4.3-0.4 7.5-1 7.5-0.6 0-1-3.2-1-7.5 0-4.3 0.4-7.5 1-7.5 0.6 0 1 3.2 1 7.5zm15 0c0 4.3-0.4 7.5-1 7.5-0.5 0-1-1.4-1-3 0-2.3-0.5-3-1.9-3-1.1 0-2.9 1.3-4.1 3-2.6 3.6-4.9 4-2.5 0.4 1-1.6 1.3-3 0.7-3.7-3.5-4.6-1-8.7 5.4-8.7h4.4zm40.2-5.8c1 0.9 1.8 2.4 1.8 3.5 0 1.5-0.8 1.8-5 1.8-4.7 0-5 0.2-5 2.5 0 3.1 4 5.1 7.1 3.5 1.3-0.7 1.9-0.7 1.9-0.1 0 1.9-5.2 2.5-7.9 1-3.3-1.9-4.2-9-1.5-12 2.1-2.3 6.1-2.5 8.6-0.2zm13.9-0.7c1 0.6 1.9 1.7 1.9 2.5 0 1.9-1.6 1.9-2.4 0-0.7-1.8-4.7-2-6.4-0.3-1.6 1.6-1.6 7 0 8.6 1.7 1.7 4.8 1.5 7-0.5 1.5-1.3 1.8-1.4 1.8-0.2 0 3.2-5.5 5.2-8.6 3.1-2.2-1.5-3.6-5.4-3-8.8 1-4.8 5.2-6.8 9.7-4.4zm15.9 0c0 0.5-1.1 1-2.5 1-2.4 0-2.5 0.2-2.5 6.5 0 3.7-0.4 6.5-1 6.5-0.6 0-1-2.8-1-6.5 0-6.3-0.1-6.5-2.5-6.5-1.4 0-2.5-0.5-2.5-1 0-0.6 2.7-1 6-1 3.3 0 6 0.4 6 1zm11.2 0.7c1 0.9 1.8 2.4 1.8 3.5 0 1.5-0.8 1.8-5 1.8-4.3 0-5 0.3-5 2 0 2.9 4.3 5.4 6.9 4.1 2.8-1.5 3.6-1.4 2.1 0.4-1.8 2.1-6.6 1.9-9-0.5-6-6 1.9-17 8.2-11.3zm15 0c1.2 1.1 1.8 3.1 1.8 5.9 0 5.5-2.1 7.8-6.7 7.1-3.2-0.6-3.3-0.5-3.3 2.9 0 1.9-0.4 3.4-1 3.4-0.6 0-1-4.1-1-10.3v-10.3l4.2-0.1c2.7-0.2 4.9 0.4 6 1.4zm15 0c1 0.9 1.8 2.4 1.8 3.5 0 1.5-0.8 1.8-5 1.8-4.3 0-5 0.3-5 2 0 2.9 4.3 5.4 6.9 4.1 2.8-1.5 3.6-1.4 2.1 0.4-1.8 2.1-6.6 1.9-9-0.5-6-6 1.9-17 8.2-11.3zm6.8 1.8c0 3.4 0.1 3.5 4 3.5 3.9 0 4-0.1 4-3.5 0-1.9 0.5-3.5 1-3.5 0.6 0 1 3.2 1 7.5 0 4.3-0.4 7.5-1 7.5-0.5 0-1-1.6-1-3.5 0-3.4-0.1-3.5-4-3.5-3.9 0-4 0.1-4 3.5 0 1.9-0.4 3.5-1 3.5-0.6 0-1-3.2-1-7.5 0-4.3 0.4-7.5 1-7.5 0.6 0 1 1.6 1 3.5zm16 0c0 4.5 1.1 4.4 4.9-0.2 1.7-2 3.3-3.4 3.6-3.1 0.3 0.3-0.6 2-2.1 3.7l-2.7 3.2 3.2 3.9c3.9 4.9 2.7 5.2-1.9 0.5-1.9-1.9-3.8-3.5-4.2-3.5-0.4 0-0.8 1.6-0.8 3.5 0 1.9-0.4 3.5-1 3.5-0.6 0-1-3.2-1-7.5 0-4.3 0.4-7.5 1-7.5 0.6 0 1 1.6 1 3.5zm22.9-0.9c2.4 3 2.6 5.5 1 8.7-1.6 2.9-2.8 3.7-6 3.7-3.5 0-6.3-3.3-6.3-7.5 0-7 7.2-10.1 11.3-4.9zm786.1 10.4c0 0.5-0.4 1-1 1-0.5 0-1-0.5-1-1 0-0.6 0.5-1 1-1 0.6 0 1 0.4 1 1z"/>
		<path class="s0" d="m1324.2 1442.2c-1.4 1.4-1.6 6.6-0.3 8.6 0.5 0.8 2.1 1.2 3.7 1 2.8-0.3 2.9-0.5 2.9-5.3 0-4.6-0.2-5-2.5-5.3-1.4-0.2-3.1 0.3-3.8 1z"/>
		<path class="s0" d="m1383.7 1436.7c-1.4 1.3-0.7 5.2 1.1 5.5 4.2 0.9 7.4-2 5.1-4.8-1.2-1.5-5.1-1.9-6.2-0.7z"/>
		<path class="s0" d="m1384.2 1445.1c-1.8 0.7-2.3 1.5-2 3.6 0.3 2.5 0.7 2.8 4.3 2.8 3.7 0 4-0.2 4-2.9 0-3.3-2.7-4.8-6.3-3.5z"/>
		<path class="s0" d="m1445.7 1436.7c-1.3 1.2-0.7 4.2 1.1 5.1 1.9 1.1 6.2-0.1 6.2-1.7 0-2.6-1.5-4.1-3.9-4.1-1.5 0-3.1 0.3-3.4 0.7z"/>
		<path class="s0" d="m1445.8 1446c-3.2 2.6-1.4 5.5 3.3 5.5 3.1 0 3.4-0.3 3.4-2.9 0-3.9-3.5-5.3-6.7-2.6z"/>
		<path class="s0" d="m1463.2 1442.2l-3.2 5.3 3.1 0.3c1.7 0.2 3.3 0.1 3.6-0.1 0.2-0.3 0.3-2.8 0.1-5.6l-0.3-5.2z"/>
		<path class="s0" d="m123.4 1444.4c-1.4 2.2-1.4 3.1-0.4 5.5 1.9 4.6 7.4 4.9 9.1 0.4 2.3-6.2-5.1-11.3-8.7-5.9z"/>
		<path class="s0" d="m204.4 1444.6c-3.4 5 1.7 11.1 6.5 7.8 4-2.8 1.9-10.4-2.9-10.4-1.1 0-2.7 1.2-3.6 2.6z"/>
		<path class="s0" d="m323.2 1448.1c-3 1.1-2.5 4.3 0.6 4.7 2.8 0.4 5.2-1.4 5.2-3.9 0-2.1-2-2.4-5.8-0.8z"/>
		<path class="s0" d="m351.3 1448c-1.3 0.6-2.3 1.8-2.3 3 0 2.8 5.5 2.8 7 0 1.9-3.6-0.1-4.8-4.7-3z"/>
		<path class="s0" d="m386.6 1443.6c-0.9 2.4 1.2 4.4 4.5 4.4 2.6 0 2.9-0.4 2.9-3 0-2.7-0.3-3-3.4-3-2.2 0-3.6 0.6-4 1.6z"/>
		<path class="s0" d="m428.7 1442.6c-1.9 2-0.5 3.4 3.4 3.4 3.3 0 4-0.3 3.7-1.8-0.3-1.7-5.7-3-7.1-1.6z"/>
		<path class="s0" d="m470.2 1443.2c-2.1 2.1-1.4 2.8 2.9 2.8 3.3 0 4-0.3 3.7-1.8-0.4-2.1-4.8-2.8-6.6-1z"/>
		<path class="s0" d="m484.5 1444.3c-0.4 1.4-0.5 3.8-0.3 5.3 0.3 2.6 0.7 2.9 3.7 2.9 2.8 0 3.6-0.4 4.1-2.5 1.2-4.6-0.2-7.5-3.8-7.8-2.6-0.3-3.2 0.1-3.7 2.1z"/>
		<path class="s0" d="m500.2 1443.2c-2.1 2.1-1.4 2.8 2.9 2.8 3.3 0 4-0.3 3.7-1.8-0.4-2.1-4.8-2.8-6.6-1z"/>
		<path class="s0" d="m543.8 1444.5c-0.8 1.8-0.9 3.5-0.2 5.3 0.8 2.2 1.5 2.7 4.4 2.7 2.9 0 3.6-0.5 4.4-2.7 1.5-4.2-0.6-7.8-4.4-7.8-2.3 0-3.3 0.6-4.2 2.5z"/>
	</g>
</svg>