<svg xmlns="http://www.w3.org/2000/svg" x="0px" y="0px" viewBox="10.500001907348633 12.955001831054688 43 38.08799743652344" enable-background="new 0 0 64 64">
<g>
	<g>
	</g>
	
		<path fill="#FFFFFF" stroke="#000000" stroke-width="1" stroke-linecap="round" stroke-linejoin="round" stroke-miterlimit="10" d="   M30.385,18.135v27.73c0,2.584-2.095,4.678-4.678,4.678h-1.557c-3.693,0-6.688-2.994-6.688-6.688v0c0-0.73-0.592-1.322-1.322-1.322   h0c-2.839,0-5.14-2.301-5.14-5.14v-9.105c0-2.839,2.301-5.14,5.14-5.14h0c0.73,0,1.322-0.592,1.322-1.322v-1.683   c0-3.693,2.994-6.688,6.688-6.688h1.557C28.29,13.457,30.385,15.551,30.385,18.135z"/>
	
		<path fill="#FFFFFF" stroke="#000000" stroke-width="1" stroke-linecap="round" stroke-linejoin="round" stroke-miterlimit="10" d="   M33.615,18.135v27.73c0,2.584,2.095,4.678,4.678,4.678h1.557c3.693,0,6.688-2.994,6.688-6.688v0c0-0.73,0.592-1.322,1.322-1.322h0   c2.839,0,5.14-2.301,5.14-5.14v-9.105c0-2.839-2.301-5.14-5.14-5.14h0c-0.73,0-1.322-0.592-1.322-1.322v-1.683   c0-3.693-2.994-6.688-6.688-6.688h-1.557C35.71,13.457,33.615,15.551,33.615,18.135z"/>
</g>
<g>
	<g>
		
			<path fill="#FFFFFF" stroke="#536DFE" stroke-width="1" stroke-linecap="round" stroke-linejoin="round" stroke-miterlimit="10" d="    M26.603,20.728c-0.192,0-0.384-0.081-0.517-0.222c-0.14-0.133-0.222-0.325-0.222-0.517c0-0.2,0.082-0.384,0.222-0.525    c0.266-0.274,0.769-0.274,1.042,0c0.141,0.14,0.214,0.325,0.214,0.525c0,0.192-0.074,0.384-0.214,0.517    c-0.037,0.037-0.074,0.066-0.111,0.096c-0.044,0.022-0.089,0.052-0.133,0.066c-0.044,0.022-0.089,0.037-0.133,0.044    C26.699,20.72,26.655,20.728,26.603,20.728z"/>
	</g>
	<g>
		
			<path fill="#FFFFFF" stroke="#536DFE" stroke-width="1" stroke-linecap="round" stroke-linejoin="round" stroke-miterlimit="10" d="    M26.603,43.429c0.192,0,0.384,0.081,0.517,0.222c0.14,0.133,0.222,0.325,0.222,0.517c0,0.2-0.082,0.384-0.222,0.525    c-0.266,0.274-0.769,0.274-1.042,0c-0.141-0.14-0.214-0.325-0.214-0.525c0-0.192,0.074-0.384,0.214-0.517    c0.037-0.037,0.074-0.066,0.111-0.096c0.044-0.022,0.089-0.052,0.133-0.066c0.044-0.022,0.089-0.037,0.133-0.044    C26.506,43.436,26.551,43.429,26.603,43.429z"/>
	</g>
	<g>
		
			<path fill="#FFFFFF" stroke="#536DFE" stroke-width="1" stroke-linecap="round" stroke-linejoin="round" stroke-miterlimit="10" d="    M19.815,28.009c0,0.192-0.081,0.384-0.222,0.517c-0.133,0.14-0.325,0.222-0.517,0.222c-0.2,0-0.384-0.082-0.525-0.222    c-0.274-0.266-0.274-0.769,0-1.042c0.14-0.141,0.325-0.214,0.525-0.214c0.192,0,0.384,0.074,0.517,0.214    c0.037,0.037,0.066,0.074,0.096,0.111c0.022,0.044,0.052,0.089,0.066,0.133c0.022,0.044,0.037,0.089,0.044,0.133    C19.807,27.913,19.815,27.957,19.815,28.009z"/>
	</g>
	<g>
		
			<path fill="#FFFFFF" stroke="#536DFE" stroke-width="1" stroke-linecap="round" stroke-linejoin="round" stroke-miterlimit="10" d="    M19.815,34.471c0,0.192-0.081,0.384-0.222,0.517c-0.133,0.14-0.325,0.222-0.517,0.222c-0.2,0-0.384-0.082-0.525-0.222    c-0.274-0.266-0.274-0.769,0-1.042c0.14-0.141,0.325-0.214,0.525-0.214c0.192,0,0.384,0.074,0.517,0.214    c0.037,0.037,0.066,0.074,0.096,0.111c0.022,0.044,0.052,0.089,0.066,0.133c0.022,0.044,0.037,0.089,0.044,0.133    C19.807,34.374,19.815,34.419,19.815,34.471z"/>
	</g>
	<g>
		
			<path fill="#FFFFFF" stroke="#536DFE" stroke-width="1" stroke-linecap="round" stroke-linejoin="round" stroke-miterlimit="10" d="    M37.397,20.571c0.192,0,0.384-0.081,0.517-0.222c0.14-0.133,0.222-0.325,0.222-0.517c0-0.2-0.082-0.384-0.222-0.525    c-0.266-0.274-0.769-0.274-1.042,0c-0.141,0.14-0.214,0.325-0.214,0.525c0,0.192,0.074,0.384,0.214,0.517    c0.037,0.037,0.074,0.066,0.111,0.096c0.044,0.022,0.089,0.052,0.133,0.066c0.044,0.022,0.089,0.037,0.133,0.044    C37.301,20.564,37.345,20.571,37.397,20.571z"/>
	</g>
	<g>
		
			<path fill="#FFFFFF" stroke="#536DFE" stroke-width="1" stroke-linecap="round" stroke-linejoin="round" stroke-miterlimit="10" d="    M37.397,43.429c-0.192,0-0.384,0.081-0.517,0.222c-0.14,0.133-0.222,0.325-0.222,0.517c0,0.2,0.082,0.384,0.222,0.525    c0.266,0.274,0.769,0.274,1.042,0c0.141-0.14,0.214-0.325,0.214-0.525c0-0.192-0.074-0.384-0.214-0.517    c-0.037-0.037-0.074-0.066-0.111-0.096c-0.044-0.022-0.089-0.052-0.133-0.066c-0.044-0.022-0.089-0.037-0.133-0.044    C37.494,43.436,37.449,43.429,37.397,43.429z"/>
	</g>
	<g>
		
			<path fill="#FFFFFF" stroke="#536DFE" stroke-width="1" stroke-linecap="round" stroke-linejoin="round" stroke-miterlimit="10" d="    M44.185,28.009c0,0.192,0.081,0.384,0.222,0.517c0.133,0.14,0.325,0.222,0.517,0.222c0.2,0,0.384-0.082,0.525-0.222    c0.274-0.266,0.274-0.769,0-1.042c-0.14-0.141-0.325-0.214-0.525-0.214c-0.192,0-0.384,0.074-0.517,0.214    c-0.037,0.037-0.066,0.074-0.096,0.111c-0.022,0.044-0.052,0.089-0.066,0.133c-0.022,0.044-0.037,0.089-0.044,0.133    C44.193,27.913,44.185,27.957,44.185,28.009z"/>
	</g>
	<g>
		
			<path fill="#FFFFFF" stroke="#536DFE" stroke-width="1" stroke-linecap="round" stroke-linejoin="round" stroke-miterlimit="10" d="    M44.185,34.471c0,0.192,0.081,0.384,0.222,0.517c0.133,0.14,0.325,0.222,0.517,0.222c0.2,0,0.384-0.082,0.525-0.222    c0.274-0.266,0.274-0.769,0-1.042c-0.14-0.141-0.325-0.214-0.525-0.214c-0.192,0-0.384,0.074-0.517,0.214    c-0.037,0.037-0.066,0.074-0.096,0.111c-0.022,0.044-0.052,0.089-0.066,0.133c-0.022,0.044-0.037,0.089-0.044,0.133    C44.193,34.374,44.185,34.419,44.185,34.471z"/>
	</g>
	
		<line fill="none" stroke="#536DFE" stroke-width="1" stroke-linecap="round" stroke-linejoin="round" stroke-miterlimit="10" x1="26.602" y1="23.386" x2="26.602" y2="20.87"/>
	
		<line fill="none" stroke="#536DFE" stroke-width="1" stroke-linecap="round" stroke-linejoin="round" stroke-miterlimit="10" x1="26.602" y1="39.117" x2="26.602" y2="44.149"/>
	
		<line fill="none" stroke="#536DFE" stroke-width="1" stroke-linecap="round" stroke-linejoin="round" stroke-miterlimit="10" x1="23.923" y1="27.995" x2="19.079" y2="27.995"/>
	
		<line fill="none" stroke="#536DFE" stroke-width="1" stroke-linecap="round" stroke-linejoin="round" stroke-miterlimit="10" x1="23.923" y1="34.457" x2="19.079" y2="34.457"/>
	
		<line fill="none" stroke="#536DFE" stroke-width="1" stroke-linecap="round" stroke-linejoin="round" stroke-miterlimit="10" x1="37.396" y1="23.386" x2="37.396" y2="20.87"/>
	
		<line fill="none" stroke="#536DFE" stroke-width="1" stroke-linecap="round" stroke-linejoin="round" stroke-miterlimit="10" x1="37.396" y1="39.117" x2="37.396" y2="44.149"/>
	
		<line fill="none" stroke="#536DFE" stroke-width="1" stroke-linecap="round" stroke-linejoin="round" stroke-miterlimit="10" x1="40.075" y1="27.995" x2="44.919" y2="27.995"/>
	
		<line fill="none" stroke="#536DFE" stroke-width="1" stroke-linecap="round" stroke-linejoin="round" stroke-miterlimit="10" x1="40.075" y1="34.457" x2="44.919" y2="34.457"/>
	
		<path fill="#FFFFFF" stroke="#536DFE" stroke-width="1" stroke-linecap="round" stroke-linejoin="round" stroke-miterlimit="10" d="   M27.962,23.149h8.077c2.23,0,4.038,1.808,4.038,4.038v8.077c0,2.23-1.808,4.038-4.038,4.038h-8.077   c-2.23,0-4.038-1.808-4.038-4.038v-8.077C23.923,24.957,25.731,23.149,27.962,23.149z"/>
	<path fill="none" stroke="#536DFE" stroke-width="1" stroke-linecap="round" stroke-linejoin="round" stroke-miterlimit="10" d="   M29.97,27.166h4.06c1.121,0,2.03,0.909,2.03,2.03v4.06c0,1.121-0.909,2.03-2.03,2.03h-4.06c-1.121,0-2.03-0.909-2.03-2.03v-4.06   C27.94,28.075,28.849,27.166,29.97,27.166z"/>
</g>
</svg>